<svg width="65" height="73" viewBox="0 0 65 73" fill="none" xmlns="http://www.w3.org/2000/svg" id="svg-297179436_6684">
    <path d="M19.7817 37.83C23.0674 39.4807 26.3524 41.4779 29.1086 44.241C30.4664 45.6251 31.6596 47.1617 32.6643 48.82C33.6417 50.4518 34.472 52.1673 35.1453 53.9462C36.5411 57.6856 37.2985 61.5539 37.8862 65.3445C38.0402 66.285 38.1791 67.225 38.3098 68.1619L38.6861 70.9673L35.258 71.3942C34.7084 66.9814 34.2778 62.447 34.6551 57.8471C35.0143 53.2675 36.2179 48.6008 38.6595 44.5134C39.2724 43.4857 39.962 42.5058 40.7226 41.5821C41.4853 40.6413 42.3327 39.7726 43.2543 38.9869C43.4787 38.7802 43.7227 38.601 43.9613 38.414C44.2033 38.2319 44.4361 38.0344 44.6868 37.8662C45.1867 37.5272 45.6825 37.1776 46.2058 36.883C47.2323 36.2721 48.3024 35.7374 49.4073 35.2832C50.4922 34.8346 51.6012 34.4465 52.7292 34.1206C53.8463 33.8087 54.9678 33.5203 56.0863 33.2945C58.3257 32.8189 60.5507 32.4982 62.7449 32.183L62.9612 36.3411L61.006 36.299C58.8816 36.2591 56.7379 36.1453 54.5777 35.9707C52.3665 35.8119 50.1703 35.4872 48.0077 34.9995C45.7277 34.4902 43.543 33.6223 41.5351 32.4283C40.4977 31.7875 39.5387 31.028 38.6774 30.165C37.8196 29.2973 37.0729 28.3263 36.4546 27.2745C35.2331 25.2194 34.484 23.0693 33.8437 21.001C33.1972 18.92 32.6587 16.807 32.2304 14.6703C31.7915 12.5373 31.478 10.3804 31.2915 8.21068C31.2017 7.12628 31.1317 6.04062 31.0979 4.95383L31.073 4.13891C31.0666 3.86735 31.0734 3.59521 31.0506 3.32406C31.0194 2.78126 31.0126 2.23761 30.9927 1.694L34.6788 1.8685C34.369 5.83488 34.0375 9.86906 33.2731 13.923C33.1689 14.4288 33.0735 14.9368 32.961 15.4414L32.5829 16.9528L32.151 18.4582L31.6598 19.9538C30.9638 21.9626 30.0752 23.8994 29.0066 25.7372C26.9402 29.2114 24.106 32.1665 20.7212 34.3762C19.4126 35.2561 17.981 35.9374 16.4728 36.3979C15.9221 36.5557 15.3597 36.6692 14.7909 36.7376C14.5374 36.7652 14.2986 36.7832 14.0743 36.7915L13.9087 36.7964L13.7746 36.7796C13.6805 36.7667 13.5898 36.7543 13.5023 36.7424C12.4179 36.584 11.8158 36.3952 12.6513 35.5738C12.7721 35.4599 12.8999 35.3535 13.034 35.2553C13.104 35.2009 13.203 35.1392 13.2662 35.0875C13.3249 35.0384 13.3862 34.9871 13.4502 34.9337C13.7057 34.7219 14.0144 34.5148 14.3551 34.2697C14.693 34.0188 15.0858 33.7803 15.4983 33.4854C15.7076 33.3457 15.9263 33.1998 16.1543 33.0476C16.378 32.8891 16.6122 32.7283 16.8568 32.565C18.1225 31.6968 19.3301 30.7468 20.4717 29.7209C21.6377 28.6897 22.7224 27.5702 23.7163 26.3723C25.0709 24.7202 26.2095 22.9022 27.1046 20.9623C28.0094 18.9811 28.7293 16.9206 29.2551 14.807C30.3837 10.5471 30.894 6.06635 31.373 1.55016L31.3732 1.54759C31.4131 1.17343 31.5944 0.82865 31.8802 0.583872C32.166 0.339093 32.5345 0.212837 32.9104 0.230961C33.2862 0.249085 33.6409 0.410217 33.9018 0.681357C34.1627 0.952497 34.31 1.31313 34.3137 1.68938C34.3204 2.42204 34.2962 3.1561 34.3475 3.88814C34.394 4.61992 34.449 5.3508 34.5231 6.07978C34.6647 7.53832 34.8752 8.9881 35.1154 10.4303C35.5907 13.3129 36.2874 16.1545 37.1992 18.9301C37.7824 20.8282 38.54 22.6683 39.4622 24.4268C39.896 25.2216 40.4073 25.9715 40.9888 26.6656C41.5562 27.3178 42.1847 27.9141 42.8658 28.4465C43.5051 28.9249 44.1837 29.3482 44.8946 29.7118C45.6382 30.0778 46.4057 30.3931 47.1919 30.6555C48.8372 31.1806 50.528 31.5506 52.2422 31.7607C55.7532 32.2176 59.4022 32.2844 63.0723 32.4199L63.0938 32.4207C63.5536 32.4376 63.9902 32.6267 64.317 32.9506C64.6439 33.2744 64.8371 33.7092 64.8583 34.1688C64.8795 34.6284 64.7272 35.0792 64.4316 35.4318C64.1359 35.7843 63.7186 36.0129 63.2623 36.0721C60.4759 36.4338 57.7342 36.8121 55.0993 37.426C52.4753 38.0532 49.9343 38.8752 47.6904 40.1654C46.7333 40.7121 45.8295 41.3474 44.9909 42.0628C44.1576 42.7944 43.3942 43.602 42.7106 44.4751C41.346 46.2808 40.2732 48.2894 39.5313 50.4276C38.7721 52.5973 38.2823 54.852 38.073 57.1412C37.8554 59.468 37.8071 61.8076 37.9283 64.1415C38.0257 66.4135 38.2568 68.6989 38.5249 70.9925L38.5266 71.0077C38.5746 71.419 38.4575 71.8326 38.2011 72.1578C37.9446 72.483 37.5697 72.6932 37.1585 72.7423C36.7472 72.7915 36.3333 72.6756 36.0074 72.4201C35.6815 72.1645 35.4703 71.7902 35.42 71.3791C34.9697 67.6953 34.4945 64.0431 33.6429 60.5223C33.2428 58.77 32.7316 57.045 32.1124 55.3576C31.4942 53.7002 30.7214 52.1046 29.8042 50.5919C29.5635 50.2263 29.34 49.847 29.0868 49.4908L28.3042 48.4393C27.7538 47.7627 27.1685 47.1154 26.5506 46.4998C25.2719 45.2743 23.8705 44.1835 22.3686 43.2446C21.6123 42.7645 20.8327 42.3117 20.0363 41.8802C19.6382 41.6645 19.2362 41.4538 18.8303 41.248L18.2191 40.9423L17.9135 40.7924L17.6233 40.6624C17.2446 40.4803 16.829 40.3329 16.4253 40.1734C16.0053 40.0365 15.5946 39.881 15.1635 39.7631C14.3147 39.4991 13.4383 39.2988 12.5624 39.109C10.8637 38.7548 9.1401 38.5323 7.40708 38.4434C5.72738 38.3607 4.0699 38.4595 2.69233 38.9365L2.29638 37.3614L2.29509 37.2572H2.29667H2.30637H2.31933H2.34529L2.39718 37.2576C2.43085 37.2582 2.46533 37.259 2.5138 37.2566L2.78186 37.2478L3.32708 37.2253C3.69278 37.2089 4.0564 37.1927 4.41794 37.1765C5.14383 37.1477 5.86085 37.1191 6.56901 37.0909C7.98766 37.0397 9.37268 37.0089 10.7259 36.9804C11.1863 36.963 11.6474 36.981 12.105 37.0342C12.2825 37.0484 12.3886 37.1019 12.5523 37.1013C12.6589 37.0984 12.7638 37.128 12.8531 37.1863L13.1217 36.8728C13.0838 37.0158 13.0312 37.0789 13.0563 37.0918C13.0734 37.1046 13.1666 37.0641 13.2519 36.9272C13.2622 36.9108 13.2688 36.8923 13.2711 36.873C13.2734 36.8537 13.2714 36.8342 13.2653 36.8157C13.2591 36.7973 13.249 36.7805 13.2356 36.7664C13.2222 36.7524 13.2059 36.7415 13.1877 36.7345C13.1696 36.7275 13.1502 36.7246 13.1308 36.726C13.1115 36.7274 13.0927 36.733 13.0757 36.7425C13.0588 36.7521 13.0442 36.7652 13.033 36.781C13.0217 36.7969 13.0141 36.815 13.0107 36.8341L12.927 37.3068C12.9114 37.3942 12.7934 37.5277 12.5742 37.6762C12.4221 37.8002 12.2564 37.9066 12.0803 37.9933C11.5377 38.2587 10.9653 38.4584 10.3754 38.5884C9.09747 38.8823 7.81042 39.1422 6.50425 39.3892C5.85155 39.5123 5.19431 39.6307 4.53254 39.7445L3.53099 39.9105L3.01628 39.9894L2.74837 40.0273C2.64771 40.0406 2.49725 40.054 2.37356 40.0647C1.93045 40.1028 1.48796 39.9848 1.12274 39.731C0.757527 39.4772 0.492605 39.1036 0.373876 38.675C0.255147 38.2464 0.290093 37.7897 0.472657 37.3842C0.655222 36.9786 0.973903 36.6497 1.37348 36.4545L1.50123 36.3929C2.53048 35.9139 3.62378 35.5868 4.74696 35.4217C5.26722 35.3586 5.7979 35.2773 6.30805 35.2586C6.56501 35.2445 6.8246 35.2236 7.07981 35.217L7.84161 35.2108C9.86308 35.2308 11.8767 35.4661 13.8483 35.9128C14.8445 36.1278 15.8293 36.3925 16.7991 36.7059L17.5346 36.9514L18.2734 37.2325C18.5178 37.3198 18.7693 37.4384 19.0176 37.5463L19.3905 37.7115L19.7227 37.8717C19.7419 37.8571 19.7598 37.8438 19.7817 37.83Z" fill="#F1DA96"></path>
</svg>