<svg width="68" height="71" viewBox="0 0 68 71" fill="none" xmlns="http://www.w3.org/2000/svg" id="svg-632202692_5770">
    <path d="M21.6204 36.4855L22.9229 37.2147L24.1763 38.0276L24.4882 38.2326L24.7874 38.4569L25.385 38.9063C25.5829 39.0575 25.7846 39.2036 25.9788 39.3595L26.5447 39.8495C27.3018 40.4998 28.0217 41.1921 28.7012 41.9231L29.678 43.0565C29.998 43.4383 30.2798 43.8492 30.5808 44.2446C31.7351 45.8548 32.7138 47.5839 33.5003 49.4023C34.2611 51.2185 34.8377 53.1065 35.2213 55.0379C35.3087 55.5514 35.4154 56.0617 35.4815 56.5784L35.6536 58.1322L35.7295 59.6944C35.7563 60.2148 35.7221 60.7376 35.7205 61.2586C35.6527 63.3466 35.3553 65.4208 34.8337 67.4438L34.4258 68.8672C34.3085 69.2761 34.0474 69.629 33.6906 69.8607C33.3337 70.0925 32.9052 70.1875 32.4839 70.1284C32.0626 70.0692 31.6768 69.8599 31.3975 69.5388C31.1183 69.2178 30.9644 68.8067 30.9643 68.3813L30.9648 68.2989C30.9688 63.7054 30.959 58.9686 31.8418 54.2107C32.2758 51.8025 32.9856 49.4524 33.9574 47.2067C34.9501 44.8987 36.3111 42.7673 37.9872 40.8957C39.7064 39.042 41.7262 37.4919 43.9614 36.3107C46.1307 35.1782 48.4128 34.2762 50.7702 33.6197C51.9291 33.2887 53.091 33.0059 54.2571 32.7558C55.4261 32.5086 56.6235 32.2909 57.8602 32.1558C59.1244 32.0064 60.3993 31.9686 61.6701 32.0429C63.0031 32.1215 64.3206 32.3707 65.5904 32.7843C66.0088 32.9208 66.3749 33.183 66.6387 33.5352C66.9025 33.8874 67.0512 34.3125 67.0644 34.7524C67.0777 35.1923 66.9548 35.6255 66.7127 35.993C66.4705 36.3605 66.1209 36.6442 65.7114 36.8056L65.6655 36.8234C63.6663 37.5675 61.5523 37.9564 59.4192 37.9725C57.1557 37.9863 54.8952 37.8065 52.6623 37.4353C50.4485 37.128 48.2566 36.6791 46.1003 36.0911C44.9859 35.7824 43.8915 35.4059 42.823 34.9638C41.7224 34.5173 40.6605 33.9809 39.6481 33.3601C38.6094 32.7263 37.6347 31.9933 36.7375 31.1714C35.8449 30.3449 35.0368 29.4315 34.3253 28.4447C32.9726 26.5375 31.8743 24.462 31.0581 22.2707C29.4539 18.0611 28.4629 13.6427 28.1156 9.15118C28.075 8.59104 28.0401 8.03034 28.0208 7.46894C28.0083 7.18839 27.9993 6.90769 27.9957 6.62681C27.9913 6.34357 27.9811 6.08141 27.9869 5.73691C27.9868 4.9803 28.0986 4.22783 28.3189 3.50399C28.4698 3.02566 28.6952 2.57413 28.9869 2.16605C29.3352 1.68349 29.7854 1.28354 30.3057 0.994598L30.3278 0.982542C30.5824 0.843705 30.8618 0.756375 31.1502 0.725536C31.4385 0.694697 31.7301 0.72095 32.0083 0.802804C32.2865 0.884658 32.5459 1.02051 32.7716 1.20259C32.9973 1.38468 33.1849 1.60944 33.3237 1.86403C33.4728 2.1399 33.5625 2.44386 33.5872 2.75644C34.2386 11.7053 31.9287 20.6201 27.0136 28.1267C25.8692 29.8709 24.5127 31.4662 22.9753 32.8761C22.188 33.5877 21.3446 34.2347 20.4533 34.8107C19.5583 35.3896 18.6115 35.884 17.625 36.2878C16.0605 36.952 14.3662 37.2543 12.6686 37.1722C11.5802 37.1319 10.5176 36.8305 9.57018 36.2933C8.5511 35.6444 8.75293 35.1963 9.6405 34.9875C10.0918 34.8573 10.7222 34.7766 11.5143 34.6255C12.4713 34.447 13.4158 34.2065 14.3417 33.9056C15.763 33.4252 17.1067 32.7402 18.3304 31.8723C19.6037 30.9605 20.7668 29.9039 21.7965 28.7239C23.283 26.9986 24.5591 25.1027 25.598 23.0761C26.6747 21.0416 27.5493 18.9063 28.2092 16.701C29.5385 12.2898 30.0143 7.66543 29.611 3.07589L32.2368 4.48561C32.2375 4.48715 32.2413 4.49256 32.2375 4.48634L32.2275 4.47223C32.2292 4.47511 32.2312 4.47786 32.2333 4.48046C32.2388 4.48741 32.2439 4.49232 32.241 4.48867V4.49404C32.2261 4.51549 32.2135 4.53852 32.2035 4.56272C32.1352 4.72418 32.091 4.89483 32.0723 5.06917C32.0375 5.34259 32.0238 5.61828 32.0311 5.89381L32.0699 6.93756C32.1422 8.35668 32.2925 9.77022 32.4981 11.1738C32.9207 13.9768 33.6274 16.7294 34.6074 19.3893C35.2841 21.2784 36.167 23.0871 37.2401 24.7827C37.7524 25.5798 38.3268 26.3353 38.9579 27.0422C39.2616 27.3824 39.5822 27.7072 39.9186 28.0153C40.0884 28.1656 40.2466 28.3268 40.4208 28.4715L40.9432 28.9043C42.5088 30.104 44.2633 31.0345 46.1348 31.6574C48.1145 32.3267 50.1468 32.8289 52.2104 33.1586C54.2783 33.543 56.3704 33.783 58.4716 33.8769C60.4232 33.9714 62.3747 33.6884 64.2191 33.0434L64.2855 36.6157C62.4595 35.9947 60.3971 35.893 58.2789 36.1063C57.2194 36.2065 56.1436 36.3819 55.0567 36.5911C53.9684 36.8036 52.8872 37.0427 51.8245 37.3178C49.5477 37.8786 47.351 38.725 45.2864 39.8367C43.2798 40.9133 41.4998 42.3671 40.044 44.1182C38.6014 45.9162 37.4618 47.9376 36.67 50.1026C35.8539 52.3194 35.284 54.6192 34.9706 56.9605C34.4442 60.6482 34.388 64.4574 34.3392 68.3177L31.2225 67.806C33.2986 61.6862 32.5744 54.6323 29.4674 48.895C29.2642 48.5416 29.084 48.1733 28.8629 47.8308L28.1984 46.8035C27.9725 46.4641 27.7137 46.149 27.4733 45.8197C27.3489 45.6586 27.2339 45.4891 27.1018 45.3344L26.7007 44.8742C26.1687 44.2571 25.6059 43.6672 25.0144 43.1067C24.3939 42.5771 23.7926 42.0222 23.1203 41.553C22.798 41.3004 22.463 41.0643 22.1167 40.8457C21.7701 40.6272 21.4318 40.3947 21.0787 40.1861L20.0007 39.5902C19.644 39.386 19.2604 39.2335 18.8919 39.0518C17.3971 38.3563 15.8341 37.8182 14.228 37.446C10.401 36.5475 6.427 36.4702 2.56797 37.2194L2.52761 35.6878C4.83851 36.3905 7.26412 36.6366 9.66906 36.4122C11.0341 36.2837 11.727 36.2469 11.7213 36.5407C11.7122 36.6703 11.5318 36.8951 11.1432 37.1512C10.9074 37.3064 10.6606 37.4443 10.4048 37.5636C10.2553 37.6365 10.0923 37.7101 9.91419 37.7786C9.82522 37.8128 9.73368 37.8522 9.63714 37.8832C9.53981 37.9115 9.43921 37.9394 9.33533 37.9669C6.92337 38.6005 4.40359 38.7095 1.94592 38.2866C1.53915 38.2153 1.16795 38.0099 0.89144 37.7031C0.614927 37.3964 0.449 37.006 0.42009 36.594C0.39118 36.182 0.500946 35.7722 0.731909 35.4299C0.962871 35.0875 1.30175 34.8323 1.69457 34.7049L1.85041 34.6549C4.29197 33.8765 6.83954 33.4817 9.4022 33.4845C11.5065 33.4784 13.6027 33.7464 15.6378 34.2819C17.6869 34.8122 19.6722 35.5641 21.5584 36.5244C21.5783 36.5106 21.5973 36.4982 21.6204 36.4855Z" fill="#F1DA96"></path>
</svg>