<svg width="193" height="168" viewBox="0 0 193 168" fill="none" xmlns="http://www.w3.org/2000/svg" id="svg-647086760_10409">
    <path d="M63.2259 106.637L64.7783 109.039C65.3007 109.837 65.8873 110.592 66.4381 111.372L67.2765 112.534C67.5634 112.915 67.8722 113.28 68.169 113.654L69.9694 115.886C71.2564 117.297 72.4779 118.775 73.8583 120.098L74.868 121.115C75.2022 121.457 75.539 121.797 75.9002 122.109L78.0248 124.029C78.3717 124.359 78.7473 124.652 79.1185 124.95L80.2314 125.848L81.344 126.746C81.7157 127.045 82.1142 127.304 82.4979 127.585C83.2743 128.133 84.0422 128.696 84.8252 129.235L87.2407 130.738C88.0194 131.234 88.8247 131.688 89.653 132.097C90.4685 132.51 91.3072 132.883 92.1576 133.23C93.8656 133.915 95.624 134.467 97.417 134.881C101.172 135.787 105.073 135.912 108.878 135.25C110.698 134.913 112.456 134.304 114.095 133.443C115.677 132.596 117.09 131.465 118.262 130.106C118.429 129.922 118.586 129.73 118.734 129.531L119.182 128.935L119.231 128.87C119.54 128.457 119.961 128.142 120.444 127.96C120.926 127.779 121.451 127.738 121.955 127.844C122.46 127.949 122.924 128.197 123.293 128.556C123.663 128.916 123.922 129.374 124.04 129.876C124.85 133.305 127.142 136.328 130.177 138.409C133.261 140.514 136.883 141.69 140.615 141.798C142.438 141.852 144.258 141.615 146.006 141.096C146.871 140.836 147.709 140.493 148.509 140.072L149.129 139.775C149.33 139.665 149.521 139.535 149.718 139.417C150.104 139.168 150.512 138.955 150.884 138.682C152.398 137.6 153.766 136.328 154.955 134.896C156.144 133.429 157.161 131.829 157.984 130.13C159.635 126.69 160.497 122.926 160.508 119.111C160.491 117.219 160.28 115.333 159.877 113.484C159.435 111.613 158.822 109.787 158.044 108.028C154.859 100.963 149.001 95.0407 142.111 91.1711L142.098 91.1633C141.566 90.8648 141.14 90.4091 140.878 89.8588C140.616 89.3085 140.53 88.6905 140.633 88.0896C140.736 87.4887 141.022 86.9343 141.452 86.5025C141.882 86.0707 142.436 85.7825 143.036 85.6776C144.961 85.3169 146.696 84.2849 147.931 82.7652C148.609 81.9602 149.179 81.0698 149.625 80.1169C150.081 79.1312 150.424 78.0971 150.648 77.0344C151.111 74.9184 151.044 72.7209 150.455 70.6367L150.341 70.2607L150.191 69.869L149.897 69.0838L149.541 68.3203C149.429 68.0615 149.302 67.8099 149.159 67.5669L148.746 66.8257C148.598 66.5835 148.435 66.3483 148.281 66.1085C147.967 65.6279 147.627 65.165 147.262 64.7221C145.018 61.9857 142.042 59.7454 138.806 57.9008C137.174 56.9752 135.485 56.1539 133.749 55.4416C132.909 55.0332 132.035 54.7049 131.17 54.352L129.853 53.8809C129.635 53.7985 129.413 53.7293 129.187 53.6735C128.97 53.5864 128.75 53.5111 128.525 53.4477C128.082 53.3039 127.637 53.1634 127.187 53.0555C126.738 52.9413 126.29 52.8126 125.839 52.7079C124.937 52.5152 124.027 52.3697 123.11 52.2718C121.313 52.047 119.498 52.0194 117.695 52.1896C117.473 52.2108 117.248 52.2179 117.03 52.2496L116.378 52.3575C115.942 52.4142 115.51 52.4956 115.084 52.6014L113.819 52.9242L112.603 53.3566C111.034 54.0076 109.574 54.8966 108.276 55.9923L108.256 56.0092C107.692 56.4851 106.963 56.7176 106.227 56.6555C105.492 56.5934 104.812 56.2417 104.336 55.6779C104.143 55.4472 103.987 55.1873 103.875 54.9079C103.072 52.8796 102.218 50.878 101.3 48.9149C100.37 46.959 99.3908 45.0346 98.3371 43.1626C97.2691 41.3011 96.1437 39.4816 94.9267 37.7389C93.7103 36.0113 92.3997 34.352 91.0007 32.7686C89.6028 31.2172 88.105 29.7588 86.5168 28.4028C84.9428 27.0835 83.2637 25.895 81.4961 24.8492C79.7238 23.8324 77.8682 22.9683 75.9494 22.2663C74.0385 21.5818 72.0686 21.0749 70.0647 20.7518C69.5694 20.6471 69.0663 20.6311 68.5682 20.5642L67.8196 20.4804C67.5701 20.4559 67.3202 20.4583 67.0708 20.4454C66.572 20.4323 66.0721 20.3935 65.5751 20.3972L64.0878 20.4491C62.1295 20.5609 60.1912 20.9026 58.3128 21.4671C57.8435 21.5951 57.403 21.7985 56.9457 21.9569L56.2655 22.2098L55.6147 22.5262C55.1916 22.7471 54.717 22.9109 54.3169 23.143L53.7066 23.479L53.1135 23.8519C51.5181 24.8971 50.096 26.1853 48.8987 27.67C48.202 28.3629 47.5652 29.1134 46.995 29.9136C46.4036 30.7125 45.9227 31.5876 45.5651 32.5151C44.7885 34.3351 44.3023 36.2657 44.124 38.2365C43.8003 42.1439 44.8631 46.0173 47.2173 48.8377C47.58 49.2722 47.8022 49.8066 47.8545 50.3701C47.9068 50.9336 47.7868 51.4997 47.5104 51.9935C47.234 52.4873 46.8141 52.8856 46.3064 53.1356C45.7987 53.3856 45.227 53.4755 44.6671 53.3935L44.5003 53.3684C42.8182 53.1173 41.1148 53.0407 39.417 53.1398C38.9934 53.1783 38.5676 53.1814 38.1468 53.245L36.8842 53.4143L35.637 53.6642C35.2197 53.7393 34.8175 53.8762 34.4071 53.9761C30.8066 54.8367 27.4726 56.5688 24.6984 59.0201L23.7194 59.9738L22.8224 61.0013C22.5395 61.3526 22.2936 61.7224 22.022 62.0807C21.7516 62.4389 21.5525 62.8477 21.3093 63.2279C20.4132 64.8219 19.7647 66.5429 19.3861 68.3319C19.2107 69.1584 19.0786 69.9935 18.9902 70.8337C18.9666 71.2369 18.9489 71.6319 18.9196 72.0195C18.8785 72.4082 18.9214 72.7833 18.9131 73.1545C18.8887 73.9005 18.9956 74.5945 19.029 75.2733C19.0661 75.6079 19.1285 75.9288 19.1711 76.248C19.2063 76.5598 19.2586 76.8695 19.3276 77.1756C19.7375 79.1327 20.3675 81.0372 21.2055 82.8527C22.2556 84.8737 21.9623 85.414 20.1202 84.1785C19.5797 83.7635 19.0745 83.3044 18.61 82.8058C18.3435 82.5001 18.0797 82.15 17.7902 81.7738C17.6514 81.5827 17.4886 81.3931 17.3592 81.1776L16.9586 80.5075C15.6366 78.2086 14.8264 75.6513 14.5833 73.0105C14.1618 68.9028 14.8934 64.7588 16.696 61.0438L17.4413 59.6341C17.7257 59.1827 18.0215 58.7362 18.3154 58.289C18.457 58.0641 18.6132 57.8487 18.783 57.6442L19.2744 57.0228C19.4407 56.8181 19.5988 56.6055 19.7732 56.4083L20.3118 55.8316C21.7226 54.3038 23.3365 52.9769 25.1083 51.8881C26.6157 50.9474 28.2137 50.1601 29.8783 49.5381C30.6959 49.197 31.5504 48.9746 32.3892 48.7035C32.8145 48.5907 33.2452 48.4981 33.6747 48.4038C34.1023 48.2997 34.536 48.2294 34.9702 48.1654C38.4308 47.6011 41.9639 47.6542 45.4059 48.3222L43.1921 52.0137C40.8596 48.888 39.5356 45.1254 39.3969 41.2278C39.3562 40.284 39.3714 39.3386 39.4423 38.3965C39.4687 37.9269 39.5318 37.4622 39.5765 36.9951C39.6494 36.533 39.7107 36.0681 39.7993 35.6095C40.1515 33.779 40.6893 31.9892 41.4044 30.2677C41.7612 29.4083 42.1818 28.5811 42.5583 27.7239C42.9663 26.8783 43.4174 26.0542 43.91 25.255C44.3923 24.4395 44.9576 23.6761 45.5971 22.977C46.2233 22.2597 46.8904 21.5791 47.5951 20.9387C49.0167 19.6415 50.6035 18.538 52.3143 17.6568C53.1501 17.2139 54.0141 16.8266 54.9008 16.4973L56.2283 16.0018C56.6783 15.8633 57.1339 15.744 57.587 15.6157C61.1987 14.6322 64.9623 14.3322 68.6842 14.731C72.3469 15.108 75.9361 16.0113 79.341 17.4131C79.771 17.5715 80.187 17.7625 80.6007 17.9583L81.8458 18.537C82.6652 18.9439 83.4632 19.3946 84.2679 19.8305C85.0417 20.3208 85.8373 20.7775 86.5908 21.3003L87.7137 22.0966L88.273 22.4972L88.8052 22.9214C91.643 25.1628 94.2358 27.6982 96.5402 30.4851C99.2972 33.8458 101.722 37.466 103.78 41.2948C105.791 45.0385 107.544 48.9151 109.027 52.8978L104.648 51.8186C105.146 51.4403 105.639 51.0667 106.125 50.6977C106.366 50.5123 106.62 50.3451 106.886 50.1974L107.664 49.7362C110.805 47.9885 114.3 46.9737 117.888 46.7679L118.542 46.7144L119.193 46.7051L120.496 46.6894C121.357 46.7208 122.22 46.7574 123.074 46.8337C123.922 46.9409 124.782 47 125.615 47.1645C126.035 47.2335 126.454 47.3107 126.876 47.3676C127.295 47.4374 127.708 47.531 128.124 47.6121C129.784 47.9457 131.421 48.3802 133.028 48.9131C133.826 49.1872 134.621 49.4731 135.409 49.775C135.808 49.915 136.186 50.1044 136.574 50.2715C136.962 50.4394 137.341 50.6198 137.715 50.8072C139.231 51.5367 140.708 52.3448 142.139 53.2282C143.595 54.1105 144.991 55.0881 146.317 56.1547C147.672 57.2295 148.938 58.4122 150.103 59.6911C151.284 60.9992 152.347 62.4094 153.28 63.905C154.208 65.4433 154.962 67.08 155.529 68.785C156.083 70.5577 156.364 72.4046 156.362 74.262C156.382 77.967 155.336 81.5997 153.351 84.7277C152.313 86.3442 150.983 87.7533 149.429 88.883C147.815 90.0477 145.961 90.8362 144.002 91.1908L144.829 86.278C148.144 88.1264 151.222 90.3716 153.995 92.9641C158.234 96.919 161.578 101.736 163.802 107.09C164.91 109.813 165.654 112.672 166.013 115.59C166.511 120.027 166.031 124.518 164.608 128.75C163.184 132.981 160.852 136.849 157.774 140.083C155.655 142.249 153.156 144.007 150.401 145.269C149.01 145.929 147.546 146.421 146.039 146.737C144.546 147.056 143.024 147.221 141.497 147.229C136.544 147.253 131.697 145.793 127.581 143.036C126.55 142.349 125.579 141.573 124.681 140.719C123.766 139.864 122.934 138.924 122.197 137.912C121.447 136.894 120.8 135.803 120.265 134.657C119.735 133.501 119.319 132.296 119.023 131.058L123.395 131.905C122.157 133.627 120.656 135.143 118.947 136.398C117.253 137.626 115.388 138.599 113.411 139.285C111.483 139.96 109.482 140.403 107.45 140.605C105.459 140.812 103.453 140.834 101.457 140.669C97.5193 140.334 93.6544 139.405 89.9938 137.914C89.0846 137.538 88.183 137.141 87.3024 136.697C86.8606 136.479 86.4217 136.254 85.991 136.012C85.5488 135.78 85.1398 135.528 84.733 135.275L82.2776 133.766C81.8611 133.525 81.4793 133.235 81.0853 132.962L79.9102 132.135C78.3131 131.07 76.8616 129.823 75.3575 128.644C74.6189 128.039 73.9258 127.382 73.2084 126.753C72.4974 126.117 71.7748 125.493 71.1139 124.806L69.0882 122.79C68.4186 122.112 67.8017 121.386 67.1566 120.686C65.8474 119.302 64.6873 117.791 63.4778 116.323C61.1344 113.322 59.0037 110.161 57.1011 106.863C56.1046 105.24 55.2876 103.513 54.4123 101.821C53.9918 100.965 53.6332 100.078 53.2412 99.208L52.6658 97.897C52.4809 97.457 52.329 97.0017 52.1592 96.5549C50.3999 92.0771 49.2842 87.3726 48.8455 82.5817L52.0708 83.1443C51.4189 84.4128 50.5945 85.585 49.621 86.6273C48.658 87.6503 47.5459 88.5218 46.3224 89.2122C43.9783 90.4765 41.3637 91.1565 38.7006 91.1945C33.8899 91.2543 29.183 89.7948 25.2501 87.0237C24.3455 86.4102 23.5632 85.6333 22.9434 84.7329C22.589 84.126 22.5646 83.7737 22.7978 83.6749C23.2918 83.4617 24.6553 84.3252 27.4887 85.5438C31.1847 87.1648 35.2601 87.7208 39.2553 87.1489C41.0924 86.8669 42.84 86.1655 44.3624 85.0992C45.0731 84.5853 45.7119 83.9787 46.2619 83.2956C46.8057 82.5885 47.27 81.8236 47.6462 81.0148C47.937 80.4005 48.4159 79.8948 49.0134 79.571C49.6109 79.2472 50.2961 79.1221 50.9695 79.2138C51.6429 79.3054 52.2696 79.6092 52.7588 80.081C53.2479 80.5528 53.5742 81.1681 53.6901 81.8378L53.7296 82.0757L54.132 84.4874C54.8797 88.3799 56.0072 92.1898 57.4985 95.8622C59.0638 99.6011 60.9388 103.203 63.1039 106.629C63.1443 106.63 63.1818 106.632 63.2259 106.637Z" fill="#FD7F7F"></path>
</svg>