<svg width="59" height="49" viewBox="0 0 59 49" fill="none" xmlns="http://www.w3.org/2000/svg" id="svg-995126601_5000">
    <path d="M43.3943 16.5608C44.2273 17.2726 45.0132 18.0379 45.747 18.8517C47.8843 21.2656 49.5478 24.0606 50.6502 27.0905C51.0383 28.1469 51.3622 29.2258 51.62 30.3214C51.9123 31.5752 52.0289 32.8635 51.9667 34.1494C51.934 35.0084 51.8054 35.861 51.5832 36.6913C51.3643 37.552 51.0364 38.3813 50.6075 39.159C50.3872 39.5621 50.1413 39.9506 49.8714 40.3223C49.5857 40.6985 49.2737 41.054 48.9377 41.3859C48.5965 41.725 48.2288 42.0363 47.838 42.3169C47.4422 42.5924 47.0269 42.839 46.5955 43.0548C44.9637 43.821 43.1678 44.1718 41.3677 44.0759C39.796 44.0021 38.2394 43.7339 36.7337 43.2773C32.4413 42.0476 28.4721 39.8882 25.1079 36.9522C23.9925 35.9653 22.9545 34.8941 22.0031 33.7481C20.9208 32.4738 20.0248 31.0524 19.3421 29.5263C19.0052 28.6665 18.7767 27.7681 18.6621 26.8518C18.5137 25.881 18.5023 24.8942 18.6284 23.9202L20.4441 26.8503C19.0266 26.3619 17.6655 25.723 16.3841 24.9447C15.1158 24.1635 13.9317 23.2534 12.8506 22.2287C11.7706 21.2067 10.8028 20.0722 9.9637 18.8447C9.54106 18.2322 9.15379 17.596 8.80377 16.9394L8.52989 16.4225C8.40449 16.1646 8.2986 15.8976 8.21312 15.6239C8.06457 15.142 7.96932 14.6453 7.92909 14.1427C7.86535 13.2506 7.92505 12.354 8.10653 11.4782C8.29867 10.6117 8.61499 9.77747 9.04568 9.00141C9.47089 8.23871 10.0051 7.54211 10.6313 6.9336C11.2427 6.32898 11.9368 5.81413 12.6927 5.40444C14.1952 4.59529 15.8809 4.18736 17.5871 4.22007C17.9764 4.22562 18.3652 4.25156 18.7518 4.2978C19.119 4.33759 19.488 4.39442 19.8563 4.45414C20.6053 4.5845 21.3434 4.77159 22.0641 5.01381C23.2153 5.38521 24.295 5.95 25.2566 6.68395C26.2269 7.42102 27.0534 8.33022 27.6949 9.36622C28.1993 10.1595 28.5043 11.063 28.5841 11.9997C28.6089 12.3327 28.59 12.6675 28.5279 12.9956C28.3935 13.2021 28.274 13.4179 28.1704 13.6415C27.8369 14.386 27.6972 14.9811 27.0851 14.6329C26.8917 14.509 26.7216 14.3521 26.5825 14.1694C26.4835 14.0454 26.3925 13.915 26.3103 13.7792C26.28 13.7248 26.2407 13.6758 26.1939 13.6346L26.0856 13.5161C25.9328 13.3415 25.792 13.1568 25.6642 12.9632C25.4972 12.7613 25.3433 12.5489 25.2034 12.3274C24.7947 11.7619 24.3456 11.2267 23.8596 10.7261C23.3558 10.2327 22.801 9.79425 22.2046 9.4181C21.4791 8.97675 20.6911 8.64768 19.8672 8.44205C19.4381 8.33215 19.0037 8.24427 18.5656 8.17875C18.3451 8.14236 18.1185 8.1251 17.895 8.09686C17.6744 8.07397 17.5032 8.08137 17.3043 8.06779C16.5382 8.06843 15.7823 8.24279 15.0934 8.57778C14.4045 8.91277 13.8005 9.39965 13.3269 10.0018C12.8707 10.5764 12.555 11.2496 12.4048 11.9678C12.332 12.3172 12.3019 12.6741 12.315 13.0308C12.3151 13.3616 12.3638 13.6906 12.4596 14.0072C12.493 14.1131 12.5404 14.214 12.6006 14.3074C12.6165 14.3272 12.6308 14.3482 12.6435 14.3703L12.7326 14.5114L12.9103 14.7933C13.0241 14.9834 13.1552 15.1636 13.2836 15.3445C13.41 15.5268 13.539 15.7068 13.6804 15.8785C14.2218 16.5788 14.8266 17.2278 15.4871 17.8172C16.2215 18.4637 17.0075 19.0491 17.8372 19.5675C18.6593 20.0877 19.4893 20.5567 20.2862 21.0325C20.8663 21.3746 21.4721 21.6713 22.098 21.92L22.3099 22.0089C22.8122 22.2199 23.2296 22.5928 23.4958 23.0682C23.762 23.5436 23.8618 24.0943 23.7792 24.6329L23.726 24.9776C23.7232 25.0962 23.7032 25.2126 23.7068 25.3347C23.6985 25.5868 23.7308 25.8386 23.8026 26.0804C23.8341 26.2095 23.8731 26.3366 23.9194 26.4611C23.9619 26.592 24.0115 26.7204 24.0681 26.8458C24.1209 26.9778 24.1815 27.1066 24.2496 27.2315C24.2971 27.3649 24.3689 27.4979 24.4297 27.6316C25.0286 28.7864 25.7984 29.8441 26.7132 30.769C28.6341 32.7895 30.827 34.5327 33.2288 35.9483C34.2331 36.549 35.2836 37.0691 36.3702 37.5036C37.443 37.9368 38.5486 38.2835 39.6766 38.5403C40.6787 38.7768 41.711 38.8581 42.7377 38.7815C43.5687 38.7264 44.3675 38.4387 45.0426 37.9511C46.1665 37.1639 46.92 35.5022 47.0181 33.7587C47.0382 33.5414 47.0256 33.3224 47.0324 33.1038C47.0109 32.8877 47.0187 32.6657 46.9815 32.4523C46.9593 32.2373 46.9243 32.0238 46.8767 31.8129C46.8429 31.6187 46.7726 31.3488 46.7039 31.1039C46.4265 30.0987 46.0809 29.1136 45.6693 28.1555C44.0487 24.3023 41.3478 20.8882 37.7129 18.7808C34.8145 17.1142 31.8392 15.898 28.8626 14.4597C28.6455 14.3862 28.4524 14.2553 28.3037 14.081C28.2192 13.9953 28.2843 13.8638 28.396 13.7503C28.425 13.7202 28.4582 13.6895 28.4945 13.6579L28.5514 13.6098L28.5814 13.5852L28.5967 13.5729L28.6044 13.5668L28.6082 13.5637L28.6102 13.5622L28.6112 13.5614L28.6299 13.5371C28.7236 13.4558 28.831 13.3619 28.9402 13.2532C29.0543 13.1408 29.1595 13.0196 29.2548 12.8907C29.3498 12.7709 29.4343 12.5953 29.486 12.5452C29.4751 12.4899 29.6817 12.4785 29.8358 12.4537L30.3183 12.3856C30.642 12.345 30.9705 12.2855 31.3018 12.2623C31.6321 12.2285 31.9647 12.2239 32.2957 12.2486C32.6276 12.2543 32.9587 12.2995 33.2929 12.3304C33.9625 12.3863 34.6311 12.5113 35.3046 12.635C35.9775 12.7825 36.6419 12.9662 37.295 13.1853C38.391 13.554 39.4441 14.0398 40.4361 14.6341C41.4352 15.2395 42.3982 15.9024 43.3205 16.6194L43.3943 16.5608Z" fill="#FD7F7F"></path>
</svg>