<svg width="30" height="27" viewBox="0 0 30 27" fill="none" xmlns="http://www.w3.org/2000/svg" id="svg457835883_3150">
    <path d="M15.8483 4.63025C17.5393 5.4163 19.1003 6.45593 20.4774 7.7132C21.191 8.3547 21.8457 9.04172 22.5366 9.712C23.5505 10.6646 24.394 11.7837 25.0305 13.0208C25.4008 13.7593 25.6508 14.5523 25.7711 15.3696C25.9072 16.3207 25.8196 17.2904 25.5154 18.2017C25.1975 19.1374 24.6547 19.9808 23.9347 20.6578C23.2889 21.2637 22.537 21.7458 21.7168 22.0798C20.3024 22.6405 18.7769 22.8638 17.2611 22.732C16.4165 22.6686 15.5822 22.5072 14.7749 22.2509C14.3786 22.1328 13.9957 21.9927 13.6186 21.8452C13.1998 21.6839 12.7926 21.4938 12.4 21.2763C12.0154 21.0616 11.6379 20.8254 11.3012 20.5964C10.9972 20.387 10.6967 20.1715 10.3997 19.9499C9.80502 19.507 9.23238 19.0288 8.66539 18.5349C7.48604 17.5282 6.43476 16.3806 5.53515 15.1177C5.2976 14.7869 5.07696 14.4443 4.87407 14.0913C4.77183 13.9112 4.66598 13.7358 4.57441 13.5452L4.43344 13.2638L4.3635 13.1229L4.28238 12.9285C3.83338 11.8797 3.71078 10.72 3.93055 9.60051C4.06692 8.95107 4.33598 8.3368 4.72087 7.79622C5.10577 7.25564 5.59819 6.80041 6.16727 6.45906C6.60411 6.17312 7.1316 6.05966 7.64738 6.1407C7.85456 6.18035 8.05329 6.2557 8.23467 6.36339C8.40455 6.47266 8.55698 6.60692 8.68682 6.76165C8.84231 6.96711 8.95536 7.20146 9.01939 7.45105C9.08341 7.70064 9.09713 7.96049 9.05975 8.21543C9.04097 8.59236 8.94998 8.96216 8.79172 9.30476C8.63185 9.57774 8.45614 9.84112 8.26548 10.0935C8.16339 10.2433 8.09399 10.4128 8.06182 10.5912C8.02964 10.7695 8.0354 10.9526 8.07873 11.1286C8.09042 11.1739 8.11152 11.2174 8.12457 11.2634C8.13143 11.2886 8.13965 11.3135 8.14921 11.3378L8.20337 11.4491C8.27267 11.6005 8.34958 11.7482 8.43378 11.8918C8.60225 12.1905 8.79324 12.4759 9.00509 12.7455C9.92684 13.8796 11.0777 14.8064 12.3824 15.465C12.7516 15.6536 13.1432 15.8217 13.5208 16.0023C13.7071 16.0955 13.8954 16.186 14.0691 16.2934C14.2103 16.3768 14.3462 16.4688 14.476 16.5691C14.6679 16.7198 14.8754 16.8496 15.095 16.9563C15.1886 17.0049 15.3385 17.0572 15.4699 17.1067C15.6029 17.159 15.7387 17.2036 15.8767 17.2404C16.4075 17.3891 16.9534 17.4775 17.504 17.5039C18.3962 17.5594 19.2886 17.3995 20.1061 17.0377C20.2886 16.9633 20.4501 16.8452 20.5762 16.6938C20.6731 16.5801 20.735 16.4408 20.7544 16.2928C20.7775 15.7548 20.6438 15.2217 20.3695 14.7582C19.6167 13.4155 18.5911 12.2452 17.3587 11.3228C16.7202 10.8198 16.0399 10.3723 15.3251 9.98516C14.6155 9.6136 13.8728 9.30887 13.1067 9.07495C12.8019 8.99148 12.5059 8.87369 12.2085 8.77445C12.0603 8.71916 11.9127 8.65394 11.7644 8.58369C11.6109 8.52164 11.4615 8.44975 11.3172 8.36845C11.0159 8.19311 10.709 8.03273 10.3877 7.83807L9.3809 7.20741C9.21498 7.11235 9.0747 6.97831 8.9722 6.81688C8.8697 6.65545 8.80806 6.47148 8.7926 6.28088C8.77714 6.09028 8.80833 5.89879 8.88348 5.72295C8.95863 5.54712 9.07547 5.39223 9.22391 5.27167L9.60939 4.93917C9.73982 4.85211 9.88002 4.78068 10.0271 4.72636C10.3122 4.60333 10.6078 4.48651 10.9112 4.37938C11.2138 4.29306 11.5237 4.21496 11.8408 4.14507C12.1538 4.09247 12.4708 4.06711 12.7881 4.06927C13.8262 4.1007 14.8501 4.31953 15.8103 4.71519L15.8483 4.63025Z" fill="#FD7F7F"></path>
</svg>