<svg width="48" height="49" viewBox="0 0 48 49" fill="none" xmlns="http://www.w3.org/2000/svg" id="svg856302923_5632">
    <path d="M19.1231 29.3536C20.8362 31.4076 22.2177 33.7167 23.2174 36.1974C23.3399 36.5081 23.4719 36.8143 23.5847 37.1283L23.8855 38.0851C23.981 38.4053 24.0932 38.7198 24.1733 39.0443L24.3937 40.0237C24.4609 40.3514 24.5522 40.6731 24.5976 41.0052L24.7338 42.0006L24.8005 42.4979C24.8235 42.6621 24.8457 42.8279 24.8573 43.0104C24.8842 43.3682 24.8979 43.7379 24.8886 44.1227C24.8794 44.8144 24.767 45.5009 24.555 46.1594C24.4232 46.5431 24.247 46.91 24.0299 47.2526C23.7881 47.6179 23.495 47.9466 23.1597 48.2285L23.1359 48.2485C22.8583 48.4815 22.5168 48.6251 22.1561 48.6605C21.7954 48.6958 21.4325 48.6213 21.1149 48.4466C20.7974 48.272 20.5401 48.0054 20.3768 47.6819C20.2135 47.3583 20.1518 46.9929 20.2 46.6337C20.4246 44.9696 20.7437 43.3196 21.1556 41.6918C21.8258 38.9701 22.8642 36.3526 24.2421 33.9117C25.6541 31.4162 27.4992 29.1922 29.6911 27.3437C31.9354 25.4895 34.5274 24.1023 37.315 23.2635C40.1786 22.4121 43.2062 22.2698 46.137 22.8489C46.5675 22.9377 46.9597 23.1581 47.2595 23.4795C47.5593 23.801 47.7519 24.2076 47.8105 24.6432C47.8692 25.0789 47.7911 25.5219 47.587 25.9113C47.383 26.3006 47.063 26.6169 46.6714 26.8164L46.6326 26.8359C45.6787 27.3072 44.6566 27.6255 43.6038 27.7789C42.6358 27.9147 41.6568 27.9537 40.6811 27.8953C39.7459 27.849 38.8551 27.7381 37.9988 27.6153C37.1447 27.4898 36.3297 27.3676 35.4452 27.206C34.1729 26.992 32.9277 26.6398 31.7317 26.1557C31.0771 25.8809 30.4512 25.5424 29.8629 25.1449C29.2624 24.735 28.708 24.2612 28.2095 23.7319C27.2838 22.7176 26.5275 21.5609 25.9696 20.3062C25.4527 19.1471 25.047 17.9416 24.7579 16.7058C23.5912 11.9172 23.6897 6.90741 25.0439 2.16836L25.0459 2.16141C25.1645 1.74837 25.4012 1.37902 25.727 1.09885C26.0528 0.818677 26.4534 0.639919 26.8796 0.584591C27.3057 0.529262 27.7387 0.599781 28.1253 0.787462C28.5118 0.975142 28.835 1.27179 29.0551 1.64086C29.7451 2.83962 30.1186 4.1943 30.1404 5.57728C30.1628 6.78966 30.0127 7.99906 29.6947 9.1692C29.5541 9.73384 29.3719 10.2558 29.1983 10.7834C29.0044 11.3038 28.8153 11.8269 28.5851 12.3316C28.1459 13.3488 27.6308 14.3315 27.0441 15.2715C24.7126 19.0676 21.3328 22.1084 17.3123 24.0272C14.7545 25.2262 11.977 25.8849 9.15328 25.9622C8.04532 26.0006 6.93899 25.8487 5.88241 25.513C5.66811 25.4412 5.46777 25.3672 5.28089 25.2892C5.09454 25.2036 4.9215 25.1161 4.76177 25.0268C4.4694 24.8704 4.19741 24.6787 3.95194 24.4558C3.30618 23.874 3.42882 23.4056 4.07026 23.0994C4.71415 22.7998 5.87745 22.6415 7.45793 22.4829L8.21517 22.4011L8.98138 22.2987C9.49408 22.2205 10.0136 22.1553 10.5311 22.0583C11.564 21.8757 12.5852 21.6316 13.5891 21.3273C15.5263 20.7247 17.3451 19.7924 18.9653 18.5713C22.2394 16.1102 24.6175 12.6447 25.736 8.7044C26.003 7.80663 26.1385 6.8749 26.1383 5.93825C26.1502 5.16523 25.9426 4.40468 25.5397 3.74487L28.9837 3.29197C28.6329 4.68601 28.4137 6.10986 28.3288 7.54484C28.1648 10.1943 28.526 12.9186 28.9823 15.4219C29.2984 17.2058 29.8518 18.8946 30.7514 20.1929C31.175 20.8172 31.7118 21.3566 32.334 21.7833C33.0126 22.2147 33.7518 22.5424 34.5271 22.7557C35.4113 23 36.3094 23.1908 37.2165 23.3272C38.183 23.4835 39.145 23.6403 40.0504 23.7327C41.8713 23.9287 43.5488 23.8544 44.8311 23.2259L45.2743 26.7905L44.6385 26.6698L44.321 26.6071L43.9986 26.5691L43.3536 26.491L42.7022 26.4583C41.2211 26.402 39.7403 26.5755 38.3124 26.9726C36.8586 27.3805 35.4647 27.9778 34.1665 28.7489C32.8601 29.5214 31.6543 30.4524 30.5764 31.5209C29.4881 32.6055 28.5214 33.8058 27.6936 35.1002C25.4206 38.6121 24.08 42.7706 23.5233 47.0207L21.0085 45.6658C21.1585 45.5394 21.2719 45.3752 21.337 45.1902C21.4417 44.9021 21.5013 44.5996 21.5139 44.2934C21.5338 43.9128 21.5237 43.5313 21.4839 43.1523L21.303 41.8845C21.2411 41.4611 21.1554 41.0415 21.0464 40.6276L20.9025 40.0009C20.8587 39.7906 20.7765 39.5907 20.7157 39.3848C20.5795 38.9774 20.4634 38.5625 20.3127 38.1594L19.819 36.9637C19.1035 35.3839 18.2139 33.8889 17.1667 32.5064C16.0947 31.1332 14.8813 29.8763 13.5467 28.7565C11.8612 27.3785 10.0267 26.1935 8.07749 25.2238C7.96031 25.1625 7.84512 25.0964 7.7271 25.0383L7.36764 24.8801L6.65318 24.5567C6.18396 24.3184 5.69542 24.1603 5.21654 23.9676L4.4988 23.6811C4.26382 23.5966 4.03098 23.5205 3.79674 23.4611C3.33398 23.3171 2.83868 23.315 2.3747 23.455C2.2612 23.4984 2.15798 23.5518 2.07642 23.5887C2.07472 23.5894 2.07319 23.5905 2.07192 23.5919C2.07065 23.5932 2.06966 23.5948 2.06901 23.5965L2.05961 23.6228C2.02892 23.7184 2.03549 23.822 2.078 23.9128C2.11644 23.9962 2.17151 24.0709 2.23982 24.1322C2.36325 24.2425 2.5177 24.312 2.68209 24.3313C2.75981 24.3418 2.83886 24.3357 2.91406 24.3134C2.98129 24.3004 3.04748 24.2826 3.11212 24.26C3.22103 24.2188 3.30046 24.1928 3.34552 24.2218C3.38914 24.249 3.40211 24.3347 3.33781 24.4808C3.29074 24.5701 3.22811 24.6503 3.15289 24.7176C3.06249 24.8257 2.94483 24.9076 2.81212 24.9548C2.49389 25.0836 2.14025 25.0951 1.81435 24.9872C1.57333 24.9073 1.35706 24.7665 1.18656 24.5784C1.06419 24.4418 0.967627 24.2842 0.90156 24.1132C0.825804 23.9105 0.791478 23.6945 0.800614 23.4783C0.80686 23.3141 0.860273 23.1553 0.954447 23.0208L1.1907 22.6822C1.31449 22.5042 1.45957 22.3419 1.62272 22.1991C1.71373 22.1195 1.81041 22.0467 1.912 21.9811C2.02023 21.9203 2.13251 21.867 2.24806 21.8215C2.79418 21.6141 3.3751 21.5135 3.95918 21.5254C4.41559 21.5274 4.87103 21.5674 5.3208 21.645L6.5574 21.8419L6.8685 21.8953L7.17334 21.9724L7.78514 22.13C9.43452 22.5588 11.0274 23.1813 12.5304 23.9845C15.0132 25.3744 17.2247 27.2011 19.0585 29.3766C19.0794 29.369 19.0988 29.3622 19.1231 29.3536Z" fill="#F1DA96"></path>
</svg>