<?xml version="1.0" encoding="iso-8859-1"?>
<!-- Uploaded to: SVG Repo, www.svgrepo.com, Generator: SVG Repo Mixer Tools -->
<svg height="50px" width="50px" version="1.1" id="Capa_1" xmlns="http://www.w3.org/2000/svg" xmlns:xlink="http://www.w3.org/1999/xlink"
	 viewBox="0 0 317.324 317.324" xml:space="preserve">
<g>
	<path style="fill:#010002;" d="M56.867,303.557c31.334,20.549,80.999,3.443,115.499,4.765c22.066,0.843,76.936,19.902,94.39-0.114
		c18.846-21.593,10.677-64.622,8.964-90.424c-3.013-45.275,0.256-89.505-0.049-134.829c-0.207-31.579-2.687-78.834-42.305-81.755
		c-60.091-4.433-122.727,4.83-183.057,5.113c-3.867,0.022-6.837,1.403-8.996,3.476c-2.736,2.192-4.607,5.542-4.601,10.122
		c0.016,8.855,0.114,17.71,0.185,26.559c-8.447,0.065-16.905,0.315-25.368,0.359c-13.152,0.071-13.157,20.467,0,20.396
		c8.452-0.044,16.992-0.408,25.526-0.544c0.25,21.18,0.577,42.365,0.881,63.545c-8.8,0-17.601,0-26.407,0
		c-13.152,0-13.152,20.396,0,20.396c8.904,0,17.802,0,26.706,0c0.19,14.892,0.348,29.779,0.413,44.671
		c0.016,4.003-0.201,8.262-0.533,12.673c-8.822-0.038-17.672,0.169-26.592,0.223c-13.152,0.076-13.157,20.473,0,20.396
		c8.246-0.049,16.508-0.348,24.764-0.419C33.631,256.841,32.467,287.56,56.867,303.557z M63.753,229.624
		c1.023,0.141,2.056,0.245,3.084,0.419c12.858,2.11,18.379-17.546,5.417-19.668c-2.268-0.37-4.536-0.669-6.804-0.941
		c0.707-15.926,0.294-31.884,0.12-47.831c-0.038-3.655-0.103-7.31-0.141-10.965c3.786,0,7.571,0,11.362,0
		c13.152,0,13.152-20.396,0-20.396c-3.878,0-7.756,0-11.634,0c-0.299-20.815-0.62-41.631-0.876-62.44
		c2.067,0.25,4.128,0.528,6.179,0.892c12.858,2.274,18.357-17.378,5.417-19.668c-3.927-0.696-7.865-1.164-11.803-1.545
		c-0.044-4.732-0.065-9.464-0.092-14.196c44.508-0.68,88.956-3.323,133.48-3.535c8.251-0.038,37.056-6.315,42.49,1.67
		c12.048,17.693,8.746,49.583,8.441,69.876c-0.517,33.434-3.682,66.21-1.12,99.611c2.138,27.783,7.555,59.944,0.49,87.308
		c-0.984,3.807-67.385-6.402-75.402-7.071c-32.33-2.687-70.958,13.141-101.776-1.05C58.183,274.36,61.61,246.218,63.753,229.624z"/>
	<path style="fill:#010002;" d="M315.668,105.983c0-23.567,0-47.14,0-70.708c0-17.536-27.195-17.536-27.195,0
		c0,23.567,0,47.14,0,70.708C288.473,123.518,315.668,123.518,315.668,105.983z"/>
	<path style="fill:#010002;" d="M288.957,210.222c2.361,17.313,28.566,9.91,26.227-7.229c-2.409-17.639-0.957-35.762-0.876-53.493
		c0.082-17.541-27.114-17.536-27.195,0C287.016,169.865,286.194,189.978,288.957,210.222z"/>
	<path style="fill:#010002;" d="M288.473,247.398c0,13.146,0,26.287,0,39.433c0,17.536,27.195,17.536,27.195,0
		c0-13.146,0-26.287,0-39.433C315.668,229.863,288.473,229.863,288.473,247.398z"/>
</g>
</svg>