<svg width="53" height="62" viewBox="0 0 53 62" fill="none" xmlns="http://www.w3.org/2000/svg">
<path d="M5 31C5 17.7452 15.7452 7 29 7C42.2548 7 53 17.7452 53 31C53 44.2548 42.2548 55 29 55C15.7452 55 5 44.2548 5 31Z" fill="#0E4AA4"/>
<path d="M26.3333 3C26.3333 4.47276 27.5272 5.66667 29 5.66667C30.4728 5.66667 31.6667 4.47276 31.6667 3C31.6667 1.52724 30.4728 0.333333 29 0.333333C27.5272 0.333333 26.3333 1.52724 26.3333 3ZM1 31H1.5H1ZM26.3333 59C26.3333 60.4728 27.5272 61.6667 29 61.6667C30.4728 61.6667 31.6667 60.4728 31.6667 59C31.6667 57.5272 30.4728 56.3333 29 56.3333C27.5272 56.3333 26.3333 57.5272 26.3333 59ZM29 2.5C25.2573 2.5 21.5513 3.23717 18.0935 4.66943L18.4762 5.59331C21.8127 4.21131 25.3886 3.5 29 3.5V2.5ZM18.0935 4.66943C14.6357 6.10169 11.4939 8.20099 8.84746 10.8475L9.55456 11.5546C12.1082 9.00095 15.1398 6.97532 18.4762 5.59331L18.0935 4.66943ZM8.84746 10.8475C6.20099 13.4939 4.10169 16.6357 2.66943 20.0935L3.59331 20.4762C4.97532 17.1398 7.00095 14.1082 9.55456 11.5546L8.84746 10.8475ZM2.66943 20.0935C1.23717 23.5513 0.5 27.2573 0.5 31H1.5C1.5 27.3886 2.21131 23.8127 3.59331 20.4762L2.66943 20.0935ZM0.5 31C0.5 34.7427 1.23717 38.4487 2.66943 41.9065L3.59331 41.5238C2.21131 38.1873 1.5 34.6114 1.5 31H0.5ZM2.66943 41.9065C4.10169 45.3643 6.20099 48.5061 8.84746 51.1525L9.55457 50.4454C7.00095 47.8918 4.97532 44.8602 3.59331 41.5238L2.66943 41.9065ZM8.84746 51.1525C11.4939 53.799 14.6357 55.8983 18.0935 57.3306L18.4762 56.4067C15.1398 55.0247 12.1082 52.9991 9.55457 50.4454L8.84746 51.1525ZM18.0935 57.3306C21.5513 58.7628 25.2573 59.5 29 59.5V58.5C25.3887 58.5 21.8127 57.7887 18.4762 56.4067L18.0935 57.3306Z" fill="#7B56BD"/>
</svg>
